<?xml version="1.0" encoding="utf-8"?>
<!-- Generator: Adobe Illustrator 24.1.1, SVG Export Plug-In . SVG Version: 6.00 Build 0)  -->
<svg version="1.1" id="Ebene_1" xmlns="http://www.w3.org/2000/svg" xmlns:xlink="http://www.w3.org/1999/xlink" x="0px" y="0px"
	 viewBox="0 0 841.89 595.28" style="enable-background:new 0 0 841.89 595.28;" xml:space="preserve">
<style type="text/css">
	.st0{fill:#30577A;}
</style>
<g>
	<path class="st0" d="M234.96,284c0-31.66,14.56-47.49,43.69-47.49c13.01,0,23.37,3.43,31.08,10.28
		c7.71,6.85,11.57,16.32,11.57,28.41v1.21h-22.62v-1.21c0-5.41-1.76-9.9-5.27-13.47c-3.51-3.57-8.49-5.35-14.94-5.35
		c-7.25,0-12.52,2.25-15.8,6.74c-3.28,4.49-4.92,11.86-4.92,22.1v25.73c0,9.79,1.76,16.84,5.27,21.15
		c3.51,4.32,8.95,6.48,16.32,6.48c6.91,0,11.94-1.78,15.11-5.35c3.17-3.57,4.75-8.98,4.75-16.23v-5.7h-21.07v-18.65h43.17v20.38
		c0,30.51-14.33,45.76-43,45.76c-28.9,0-43.34-15.83-43.34-47.49V284z"/>
	<path class="st0" d="M361.03,287.45h45.24v19.69h-45.24v30.57h53.02v19.69h-75.64V238.23h75.64v19.69h-53.02V287.45z"/>
	<path class="st0" d="M453.94,238.23v119.16h-22.62V238.23H453.94z"/>
	<path class="st0" d="M469.66,321.12h21.41c0.81,6.56,2.91,11.2,6.3,13.9c3.4,2.71,8.43,4.06,15.11,4.06
		c12.78,0,19.17-5.24,19.17-15.71c0-4.72-1.27-8.32-3.8-10.79c-2.53-2.47-6.56-4.17-12.09-5.09l-11.22-1.9
		c-21.53-3.57-32.29-14.62-32.29-33.16c0-11.05,3.66-19.8,10.97-26.25c7.31-6.45,17.01-9.67,29.1-9.67
		c11.74,0,21.04,3.11,27.89,9.32c6.85,6.22,10.74,14.97,11.66,26.25h-21.76c-0.35-5.76-2.01-9.96-5.01-12.61
		c-2.99-2.65-7.37-3.97-13.12-3.97c-5.87,0-10.3,1.35-13.3,4.06c-2.99,2.71-4.49,6.42-4.49,11.14c0,4.14,1.32,7.43,3.97,9.84
		c2.65,2.42,6.79,4.14,12.43,5.18l12.61,2.25c20.49,3.68,30.74,14.85,30.74,33.5c0,11.97-3.83,21.12-11.48,27.46
		c-7.66,6.33-17.99,9.5-31,9.5c-12.78,0-22.74-3.2-29.88-9.58C474.44,342.45,470.47,333.21,469.66,321.12z"/>
	<path class="st0" d="M672.63,333.9l-7.25,23.14h-23.83l42.31-119.16h18.48l42.48,119.16h-24l-7.25-23.14H672.63z M693,269.32
		l-14.33,45.76h28.84L693,269.32z"/>
	<path class="st0" d="M776.27,309.03v48.35h-22.62V238.23h45.24c11.63,0,20.9,3.19,27.8,9.58c6.91,6.39,10.36,15.05,10.36,25.99
		c0,7.83-1.81,14.45-5.44,19.86c-3.63,5.41-8.84,9.38-15.63,11.92l25.9,51.81h-26.08l-22.62-48.35H776.27z M797.68,290.21
		c5.3,0,9.41-1.41,12.35-4.23c2.94-2.82,4.4-6.88,4.4-12.17c0-4.84-1.5-8.69-4.49-11.57s-7.08-4.32-12.26-4.32h-21.41v32.29H797.68z
		"/>
	<g>
		<path class="st0" d="M66.38,249.36c0-2.84-2.3-5.15-5.15-5.15H36.76c-2.84,0-5.15,2.3-5.15,5.15s2.3,5.15,5.15,5.15h24.47
			C64.07,254.51,66.38,252.2,66.38,249.36z"/>
		<path class="st0" d="M56.58,321.76c0-2.84-2.3-5.15-5.15-5.15h-20.5c-2.84,0-5.15,2.3-5.15,5.15c0,2.84,2.3,5.15,5.15,5.15h20.5
			C54.27,326.91,56.58,324.6,56.58,321.76z"/>
		<circle class="st0" cx="61.91" cy="345.9" r="5.15"/>
		<path class="st0" d="M157.29,236.51c-10.76,0-20.89,2.8-29.68,7.71H78.04c-2.84,0-5.15,2.3-5.15,5.15c0,2.84,2.3,5.15,5.15,5.15
			h35.97c-4.07,4.09-7.57,8.74-10.36,13.84H50.63c-2.84,0-5.15,2.3-5.15,5.15c0,2.84,2.3,5.15,5.15,5.15h48.56
			c-1.45,4.42-2.4,9.05-2.8,13.84H5.15c-2.84,0-5.15,2.3-5.15,5.15c0,2.84,2.3,5.15,5.15,5.15h91.24c0.4,4.79,1.36,9.43,2.8,13.84
			H66.3c-2.84,0-5.15,2.3-5.15,5.15c0,2.84,2.3,5.15,5.15,5.15h37.35c2.79,5.1,6.29,9.75,10.36,13.84h-35.5
			c-2.84,0-5.15,2.3-5.15,5.15c0,2.84,2.3,5.15,5.15,5.15h49.01c0.03,0,0.06,0,0.08,0c8.8,4.91,18.92,7.71,29.69,7.71
			c33.7,0,61.12-27.42,61.12-61.12C218.41,263.92,190.99,236.51,157.29,236.51z M181.73,328.93l-0.48,1.41h-1.49h-8.98h-1.5
			l-0.48-1.42l-15.22-44.55h-9.21v43.87v2.09h-2.09h-11.29h-2.09v-2.09v-43.87h-12.96h-2.09v-2.09v-9.1v-2.09h2.09h47.75h1.5
			l0.48,1.42l9.65,28.58l9.65-28.58l0.48-1.42h1.5h11.72h2.93l-0.95,2.77L181.73,328.93z"/>
	</g>
	<polygon class="st0" points="633.59,354.59 639.59,337.7 591.75,337.7 591.75,238.23 569.12,238.23 569.12,357.39 632.6,357.39 	
		"/>
</g>
</svg>
